<svg xmlns="http://www.w3.org/2000/svg" width="320" height="220" viewBox="0 0 320 220" fill="none">
  <rect x="88" y="54" width="144" height="112" rx="16" stroke="#5b8cff" stroke-width="4"/>
  <rect x="118" y="84" width="84" height="52" rx="10" stroke="#5b8cff" stroke-width="3"/>
  <g stroke="#5b8cff" stroke-width="4" stroke-linecap="round">
    <line x1="88" y1="74" x2="60" y2="74"/>
    <line x1="88" y1="104" x2="60" y2="104"/>
    <line x1="88" y1="134" x2="60" y2="134"/>
    <line x1="232" y1="74" x2="260" y2="74"/>
    <line x1="232" y1="104" x2="260" y2="104"/>
    <line x1="232" y1="134" x2="260" y2="134"/>
    <line x1="120" y1="54" x2="120" y2="30"/>
    <line x1="160" y1="54" x2="160" y2="30"/>
    <line x1="200" y1="54" x2="200" y2="30"/>
    <line x1="120" y1="166" x2="120" y2="190"/>
    <line x1="160" y1="166" x2="160" y2="190"/>
    <line x1="200" y1="166" x2="200" y2="190"/>
  </g>
</svg>
