<svg xmlns="http://www.w3.org/2000/svg" width="320" height="220" viewBox="0 0 320 220" fill="none">
  <rect x="66" y="82" width="188" height="56" rx="12" stroke="#5b8cff" stroke-width="4"/>
  <rect x="82" y="92" width="156" height="16" rx="8" stroke="#5b8cff" stroke-width="3"/>
  <g stroke="#5b8cff" stroke-width="3">
    <rect x="86" y="112" width="22" height="16" rx="5"/>
    <rect x="112" y="112" width="22" height="16" rx="5"/>
    <rect x="138" y="112" width="22" height="16" rx="5"/>
    <rect x="164" y="112" width="22" height="16" rx="5"/>
    <rect x="190" y="112" width="22" height="16" rx="5"/>
    <rect x="216" y="112" width="22" height="16" rx="5"/>
  </g>
  <g stroke="#5b8cff" stroke-width="4" stroke-linecap="round">
    <line x1="96" y1="140" x2="96" y2="160"/>
    <line x1="116" y1="140" x2="116" y2="160"/>
    <line x1="136" y1="140" x2="136" y2="160"/>
    <line x1="156" y1="140" x2="156" y2="160"/>
    <line x1="176" y1="140" x2="176" y2="160"/>
    <line x1="196" y1="140" x2="196" y2="160"/>
    <line x1="216" y1="140" x2="216" y2="160"/>
    <line x1="236" y1="140" x2="236" y2="160"/>
  </g>
</svg>
